<?xml version="1.0" encoding="utf-8"?>
<!-- Generator: Adobe Illustrator 25.4.1, SVG Export Plug-In . SVG Version: 6.00 Build 0)  -->
<svg version="1.1" id="Layer_1" xmlns="http://www.w3.org/2000/svg" xmlns:xlink="http://www.w3.org/1999/xlink" x="0px" y="0px"
	 viewBox="0 0 470.9 223.6" style="enable-background:new 0 0 470.9 223.6;" xml:space="preserve">
<style type="text/css">
	.st0{display:none;opacity:0.15;fill-rule:evenodd;clip-rule:evenodd;fill:none;}
	.st1{fill-rule:evenodd;clip-rule:evenodd;fill:#3A3AE4;}
	.st2{fill:#172B4D;}
</style>
<g>
	<path class="st0" d="M470.9,0H0v50.1h0v123.8v5.8v44h470.9v-44v-5.8V50.1h0V0z M420.8,173.9H49.9V50.1h370.8V173.9z"/>
	<g>
		<g>
			<g>
				<path class="st1" d="M391.8,76.8l27.7,27.7c1.7,1.7,1.7,4.4,0,6L375,155.1c-1.7,1.7-4.4,1.7-6,0l-27.7-27.7
					c-1.7-1.7-1.7-4.4,0-6l44.5-44.6C387.5,75.1,390.2,75.1,391.8,76.8z"/>
				<path class="st1" d="M332.9,135.9l10.8,10.9c1.7,1.7,1.7,4.4,0,6L324.4,172c-1.7,1.7-4.4,1.7-6,0l-10.8-10.9
					c-1.7-1.7-1.7-4.4,0-6l19.3-19.3C328.5,134.2,331.2,134.2,332.9,135.9z"/>
				<path class="st1" d="M293.1,146.7L265.4,119c-1.7-1.7-1.7-4.4,0-6L310,68.3c1.7-1.7,4.4-1.7,6,0l27.7,27.7c1.7,1.7,1.7,4.4,0,6
					l-44.5,44.6C297.5,148.4,294.8,148.4,293.1,146.7z"/>
				<path class="st1" d="M352.1,87.6l-10.8-10.9c-1.7-1.7-1.7-4.4,0-6l19.3-19.3c1.7-1.7,4.4-1.7,6,0l10.8,10.9c1.7,1.7,1.7,4.4,0,6
					l-19.3,19.3C356.5,89.3,353.8,89.3,352.1,87.6z"/>
			</g>
		</g>
		<g>
			<path class="st2" d="M243.6,66.6h-8c-2.4,0-4.3,1.9-4.3,4.3v8c0,2.4,1.9,4.3,4.3,4.3h8c2.4,0,4.3-1.9,4.3-4.3v-8
				C247.8,68.5,245.9,66.6,243.6,66.6z"/>
			<path class="st2" d="M161.3,157.4h-8c-2.4,0-4.3,1.9-4.3,4.3v8c0,2.4,1.9,4.3,4.3,4.3h8c2.4,0,4.3-1.9,4.3-4.3v-8
				C165.6,159.3,163.7,157.4,161.3,157.4z"/>
			<path class="st2" d="M218.8,157.4h-24.5c-2.4,0-4.3,1.9-4.3,4.3v8c0,2.4,1.9,4.3,4.3,4.3h24.5c2.4,0,4.3-1.9,4.3-4.3v-8
				C223.1,159.3,221.2,157.4,218.8,157.4z"/>
			<path class="st2" d="M243.6,91.3h-8c-2.4,0-4.3,1.9-4.3,4.3v37h-28.7c-2.4,0-4.3,1.9-4.3,4.3v8c0,2.4,1.9,4.3,4.3,4.3h31.6h6.7
				h2.7c2.4,0,4.3-1.9,4.3-4.3V95.6C247.8,93.2,245.9,91.3,243.6,91.3z"/>
			<path class="st2" d="M111.7,50.1h-8c-2.4,0-4.3,1.9-4.3,4.3v78.2h-33v-37c0-2.4-1.9-4.3-4.3-4.3h-8c-2.4,0-4.3,1.9-4.3,4.3v49.2
				c0,2.4,1.9,4.3,4.3,4.3H61h2.5h38.8h3.9h5.4c2.4,0,4.3-1.9,4.3-4.3V54.3C115.9,52,114,50.1,111.7,50.1z"/>
			<path class="st2" d="M218.8,124.2c2.4,0,4.3-1.9,4.3-4.3v-8c0-2.4-1.9-4.3-4.3-4.3h-28.7V95.6c0-2.4-1.9-4.3-4.3-4.3h-8
				c-2.4,0-4.3,1.9-4.3,4.3v37h-33V54.3c0-2.4-1.9-4.3-4.3-4.3h-8c-2.4,0-4.3,1.9-4.3,4.3v81.1v9.4c0,2.4,1.9,4.3,4.3,4.3h9.4h38.8
				h2.5h6.9c2.4,0,4.3-1.9,4.3-4.3v-20.6H218.8z"/>
		</g>
	</g>
</g>
</svg>
