<svg width="74" height="24" viewBox="0 0 74 24" fill="none" xmlns="http://www.w3.org/2000/svg">
<path d="M30.368 18V5.652H36.794C37.682 5.652 38.42 5.82 39.008 6.156C39.608 6.48 40.058 6.942 40.358 7.542C40.67 8.13 40.826 8.832 40.826 9.648C40.826 10.464 40.664 11.178 40.34 11.79C40.028 12.39 39.566 12.858 38.954 13.194C38.342 13.53 37.592 13.698 36.704 13.698H33.05V18H30.368ZM33.05 11.502H36.344C36.908 11.502 37.34 11.34 37.64 11.016C37.952 10.692 38.108 10.242 38.108 9.666C38.108 9.27 38.042 8.94 37.91 8.676C37.778 8.412 37.58 8.208 37.316 8.064C37.064 7.92 36.74 7.848 36.344 7.848H33.05V11.502ZM42.404 7.146V4.986H44.906V7.146H42.404ZM42.404 18V8.532H44.906V18H42.404ZM46.2128 18L49.6508 13.086L46.4648 8.532H49.4708L51.2708 11.376H51.3608L53.1788 8.532H56.0048L52.8008 13.068L56.1848 18H53.2328L51.1808 14.778H51.0908L49.0388 18H46.2128ZM61.2958 18.216C60.2518 18.216 59.3758 18.042 58.6678 17.694C57.9598 17.334 57.4258 16.788 57.0658 16.056C56.7058 15.324 56.5258 14.394 56.5258 13.266C56.5258 12.126 56.7058 11.196 57.0658 10.476C57.4258 9.744 57.9538 9.204 58.6498 8.856C59.3578 8.496 60.2218 8.316 61.2418 8.316C62.2018 8.316 63.0118 8.49 63.6718 8.838C64.3318 9.174 64.8298 9.702 65.1658 10.422C65.5018 11.13 65.6698 12.048 65.6698 13.176V13.824H59.0638C59.0878 14.376 59.1718 14.844 59.3158 15.228C59.4718 15.612 59.7058 15.9 60.0178 16.092C60.3418 16.272 60.7678 16.362 61.2958 16.362C61.5838 16.362 61.8418 16.326 62.0698 16.254C62.3098 16.182 62.5138 16.074 62.6818 15.93C62.8498 15.786 62.9818 15.606 63.0778 15.39C63.1738 15.174 63.2218 14.928 63.2218 14.652H65.6698C65.6698 15.252 65.5618 15.774 65.3458 16.218C65.1298 16.662 64.8298 17.034 64.4458 17.334C64.0618 17.622 63.5998 17.844 63.0598 18C62.5318 18.144 61.9438 18.216 61.2958 18.216ZM59.0998 12.24H63.0958C63.0958 11.88 63.0478 11.568 62.9518 11.304C62.8678 11.04 62.7478 10.824 62.5918 10.656C62.4358 10.488 62.2438 10.368 62.0158 10.296C61.7998 10.212 61.5538 10.17 61.2778 10.17C60.8218 10.17 60.4378 10.248 60.1258 10.404C59.8258 10.548 59.5918 10.776 59.4238 11.088C59.2678 11.388 59.1598 11.772 59.0998 12.24ZM67.5055 18V8.532H69.5755L69.7735 10.008H69.8995C70.0195 9.696 70.1755 9.414 70.3675 9.162C70.5595 8.898 70.7995 8.688 71.0875 8.532C71.3755 8.376 71.7115 8.298 72.0955 8.298C72.2995 8.298 72.4855 8.322 72.6535 8.37C72.8215 8.406 72.9475 8.442 73.0315 8.478V10.746H72.2575C71.8855 10.746 71.5555 10.8 71.2675 10.908C70.9915 11.004 70.7575 11.16 70.5655 11.376C70.3735 11.592 70.2295 11.856 70.1335 12.168C70.0495 12.48 70.0075 12.846 70.0075 13.266V18H67.5055Z" fill="black"/>
<g clip-path="url(#clip0_0_272)">
<path d="M19.9714 8.49635C19.2 8.12135 18.0107 8.11064 16.5214 8.13207C15.2464 8.15349 14.3785 8.20707 14.0785 8.21778C12.8785 8.26064 12.2571 8.96778 12.0857 9.40706C11.9142 9.84635 10.9285 12.7606 10.8535 13.4035C10.7464 14.2285 10.9607 14.8071 11.9892 14.8071C13.5535 14.8071 17.5285 9.35349 19.4357 8.88207C20.2178 8.68921 20.5178 8.97849 20.7535 9.33206C20.6892 9.03206 20.4428 8.72135 19.9714 8.49635Z" fill="url(#paint0_linear_0_272)"/>
<path d="M11.7 14.775C10.9178 14.6786 10.7571 14.1321 10.8536 13.3928C10.9393 12.7607 11.9464 9.85712 12.0857 9.39641C13.3286 5.4107 13.7786 2.27141 13.8428 1.98212C14.3143 -0.0535896 12.15 -1.0393 10.3821 1.56427C8.9357 3.70712 3.64284 11.3893 3.14998 12.3964C2.72141 13.2643 3.14998 14.775 4.70355 14.775C6.99641 14.775 11.7 14.775 11.7 14.775Z" fill="url(#paint1_linear_0_272)"/>
<path d="M11.721 14.775C12.0425 14.8071 12.2568 14.7964 12.6746 14.55C14.5068 13.5 17.7639 9.27855 19.4353 8.86069C20.2282 8.65712 20.5389 8.98926 20.7318 9.26783C21.3425 10.1678 20.8175 11.2714 20.271 12.1071C16.7996 17.3571 13.6496 21.5678 12.2032 23.2928C11.0996 24.6107 8.96747 24.225 9.74962 21.75C9.98533 20.9785 11.721 14.775 11.721 14.775Z" fill="url(#paint2_linear_0_272)"/>
</g>
<defs>
<linearGradient id="paint0_linear_0_272" x1="17.0218" y1="8.46128" x2="11.7848" y2="16.0549" gradientUnits="userSpaceOnUse">
<stop offset="0.2303" stop-color="#3BCC95"/>
<stop offset="1" stop-color="#085F3E"/>
</linearGradient>
<linearGradient id="paint1_linear_0_272" x1="6.1681" y1="17.9104" x2="9.89473" y2="4.99421" gradientUnits="userSpaceOnUse">
<stop offset="0.1755" stop-color="#02603D"/>
<stop offset="0.4615" stop-color="#11A56D"/>
<stop offset="0.7099" stop-color="#24B47E"/>
<stop offset="0.8909" stop-color="#28C98D"/>
</linearGradient>
<linearGradient id="paint2_linear_0_272" x1="13.3719" y1="14.8062" x2="16.5114" y2="17.47" gradientUnits="userSpaceOnUse">
<stop stop-color="#088E5C"/>
<stop offset="0.2627" stop-color="#179B69"/>
<stop offset="0.6709" stop-color="#24B47E"/>
<stop offset="0.8909" stop-color="#24B47E"/>
</linearGradient>
<clipPath id="clip0_0_272">
<rect width="24" height="24" fill="white"/>
</clipPath>
</defs>
</svg>
