<?xml version="1.0" encoding="UTF-8"?>
<svg id="Layer_2" data-name="Layer 2" xmlns="http://www.w3.org/2000/svg" xmlns:xlink="http://www.w3.org/1999/xlink" viewBox="0 0 176.59 167.98">
  <defs>
    <style>
      .cls-1 {
        fill: url(#linear-gradient);
      }

      .cls-1, .cls-2, .cls-3, .cls-4, .cls-5, .cls-6, .cls-7 {
        fill-rule: evenodd;
      }

      .cls-8 {
        mask: url(#mask);
      }

      .cls-2 {
        fill: #1eb37e;
      }

      .cls-3 {
        fill: #14aa7d;
      }

      .cls-4 {
        fill: #00997b;
      }

      .cls-5 {
        fill: #00996c;
      }

      .cls-6 {
        fill: url(#linear-gradient-3);
      }

      .cls-7 {
        fill: url(#linear-gradient-2);
      }

      .cls-9 {
        mask: url(#mask-3);
      }

      .cls-10 {
        mask: url(#mask-2);
      }

      .cls-11 {
        mask: url(#mask-4);
      }

      .cls-12 {
        mask: url(#mask-1);
      }
    </style>
    <linearGradient id="linear-gradient" x1="-8541.75" y1="12133.84" x2="-5287.56" y2="13705.32" gradientTransform="translate(578.18 1020.11) scale(.07 -.07)" gradientUnits="userSpaceOnUse">
      <stop offset="0" stop-color="#0c9982"/>
      <stop offset="1" stop-color="#00997b"/>
    </linearGradient>
    <mask id="mask" x="-.12" y="12.59" width="176.87" height="124.28" maskUnits="userSpaceOnUse"/>
    <linearGradient id="linear-gradient-2" x1="-7844.78" y1="12439.44" x2="-5373.3" y2="12233.85" xlink:href="#linear-gradient"/>
    <mask id="mask-1" x="12.04" y="128.23" width="159.06" height="39.76" maskUnits="userSpaceOnUse"/>
    <mask id="mask-2" x="14.8" y="93.45" width="143.07" height="54.76" maskUnits="userSpaceOnUse"/>
    <linearGradient id="linear-gradient-3" x1="-7552" y1="12438.63" x2="-6141.71" y2="14184.61" gradientTransform="translate(578.18 1020.11) scale(.07 -.07)" gradientUnits="userSpaceOnUse">
      <stop offset="0" stop-color="#1eb37e"/>
      <stop offset="1" stop-color="#1eb37e"/>
    </linearGradient>
    <mask id="mask-3" x="80.06" y="-.12" width="70.39" height="84.76" maskUnits="userSpaceOnUse"/>
    <mask id="mask-4" x="22.3" y="31.39" width="49.07" height="80.89" maskUnits="userSpaceOnUse"/>
  </defs>
  <g id="Layer_1-2" data-name="Layer 1">
    <g id="Layer_1-3" data-name="Layer_1">
      <g id="_2564376421536" data-name=" 2564376421536">
        <path class="cls-1" d="M18.35,104.58c-46.7,9.24,.63,53.45,86.66,19.5,78.05-30.79,84.56-75.88,56.14-93.57,17.49,19.42-9.12,51.64-52.31,73.04-56.3,27.87-120.88,14.69-90.49,1.03ZM171.33,22.62l-28.19-9.91,10.11,29.29c1.93-3.99,4.18-7.38,6.71-10.23l-8.13-9.95,10.7,7.3c2.72-2.61,5.68-4.74,8.8-6.51Z"/>
        <g class="cls-8">
          <path class="cls-4" d="M.67,114.41c-6.55,14.96,37.07,36.24,104.34,9.67,78.05-30.79,84.56-75.88,56.14-93.57,9.32,8.05,11.92,22.03,4.7,36.32-18.79,37.11-74.97,58.07-113.82,62.02-26.37,2.72-47.93-1.62-51.36-14.45ZM151.83,21.83c-5.76-6.08-8.69-9.12-8.69-9.12l28.19,9.91c-3.12,1.78-6.08,3.91-8.8,6.51l-10.7-7.3Z"/>
        </g>
        <path class="cls-7" d="M156.96,93.57c-11.53,10.74-28.5,21.28-51.95,30.52-38.65,15.24-69.52,14.73-87.53,8.69l-5.17,23.45c-.67,2.96,0,5.76,1.89,8.13s4.5,3.63,7.54,3.63H161.39c3.04,0,5.68-1.26,7.58-3.63s2.53-5.17,1.89-8.13l-13.9-62.65Z"/>
        <g class="cls-12">
          <path class="cls-5" d="M93.52,128.23c-33.28,10.94-59.85,9.99-76.04,4.54l-5.17,23.45c-.67,2.96,0,5.76,1.89,8.13s4.5,3.63,7.54,3.63H161.39c3.04,0,5.68-1.26,7.58-3.63s2.53-5.17,1.89-8.13l-4.3-19.34-.39,.12-.16,.04c-.43,.16-.91,.32-1.38,.43l-.71,.24c-.43,.12-.87,.24-1.3,.36l-.87,.24c-.39,.12-.75,.2-1.14,.28-.36,.12-.71,.2-1.07,.28-.32,.08-.63,.16-.99,.24-.39,.08-.79,.16-1.18,.24l-.83,.2c-.47,.08-.95,.16-1.38,.24l-.71,.16c-.51,.08-1.03,.16-1.54,.24l-.55,.08c-.55,.08-1.14,.16-1.7,.24l-.43,.08c-.59,.08-1.22,.12-1.82,.2l-.28,.04c-.67,.04-1.34,.12-2.01,.16h-.12c-.71,.08-1.42,.12-2.09,.16h-.16c-.71,.04-1.42,.08-2.17,.08h0c-.75,.04-1.5,.04-2.25,.04-.71,0-1.46,0-2.21-.04h-.08c-.71,0-1.42-.04-2.13-.08h-.12c-.67-.04-1.38-.08-2.05-.16h-.2c-.67-.04-1.34-.12-2.01-.16l-.2-.04c-.67-.08-1.34-.16-2.01-.24h-.24c-.63-.12-1.26-.2-1.89-.28l-.32-.04c-.59-.12-1.22-.2-1.82-.32l-.36-.08c-.59-.08-1.14-.2-1.74-.32l-.39-.08c-.55-.12-1.14-.24-1.7-.39l-.39-.08c-.59-.12-1.14-.28-1.7-.39l-.43-.12c-.55-.16-1.11-.32-1.66-.43l-.47-.16c-.51-.16-1.03-.32-1.54-.47l-.59-.16c-.43-.16-.91-.28-1.34-.43l-.75-.28c-.39-.12-.79-.28-1.18-.39l-.91-.36c-.36-.12-.71-.28-1.07-.39l-.91-.36-1.03-.39c-.36-.16-.71-.32-1.07-.47-.32-.12-.59-.28-.91-.39-.36-.16-.75-.36-1.14-.51l-.55-.28c-.43-.2-.91-.43-1.38-.67l-.51-.24c-.51-.24-.99-.51-1.46-.75l-.39-.2c-.55-.32-1.07-.59-1.62-.91l-.2-.12c-.63-.32-1.22-.67-1.86-1.07h0c-.43-.24-.83-.47-1.26-.75Z"/>
        </g>
        <g class="cls-10">
          <path class="cls-4" d="M156.96,93.57c-11.53,10.74-28.5,21.28-51.95,30.52-38.65,15.24-69.52,14.73-87.53,8.69l-2.53,11.49c5.21,1.86,10.9,2.88,16.15,3.36,25.9,2.45,54.17-6,77.3-17.09,16.86-8.09,35.57-19.27,49.35-33.52l-.79-3.43Z"/>
        </g>
        <path class="cls-6" d="M150.29,63.44l-5.37-24.32c-1.03-4.5-4.86-7.58-9.47-7.58h-12.83l-2.33-13.66c-.87-4.9-3-9.44-6.28-12.71h0c-3.2-3.2-7.38-5.17-12.36-5.17h-20.17c-4.97,0-9.16,1.97-12.32,5.17h-.04c-3.24,3.24-5.41,7.82-6.24,12.71l-2.37,13.66h-12.83c-4.58,0-8.45,3.08-9.44,7.58l-15.83,71.34,.12,.04c10.54,2.49,24.44,1.78,35.06,.39,16.42-2.17,32.89-7.03,47.77-14.37,14.61-7.22,30.08-17.13,41.26-29.14l3.67-3.95Zm-37.47-31.9h-42.52l2.09-12.04c.51-2.96,1.74-5.68,3.55-7.5,1.46-1.46,3.32-2.33,5.53-2.33h20.17c2.25,0,4.11,.87,5.53,2.29v.04c1.82,1.82,3.04,4.5,3.55,7.5l2.09,12.04Z"/>
        <g class="cls-9">
          <path class="cls-3" d="M150.29,63.44l-5.37-24.32c-1.03-4.5-4.86-7.58-9.47-7.58h-12.83l-2.33-13.66c-.87-4.9-3-9.44-6.28-12.71h0c-3.2-3.2-7.38-5.17-12.36-5.17h-16.7c-1.38,3.12-2.49,6.32-3.32,9.67h20.02c2.25,0,4.11,.87,5.53,2.29v.04c1.82,1.82,3.04,4.5,3.55,7.5l2.09,12.04h-32.65c2.84,25.7,21.48,46.66,46.03,52.94,7.46-5.05,14.53-10.78,20.41-17.09l3.67-3.95Z"/>
        </g>
        <g class="cls-11">
          <path class="cls-2" d="M54.99,31.54h-7.3c-4.58,0-8.45,3.08-9.44,7.58l-15.83,71.34,.12,.04c10.54,2.49,24.44,1.78,35.06,.39,4.54-.59,9.12-1.42,13.62-2.41-11.96-14.92-19.15-33.91-19.15-54.52,0-7.78,1.03-15.28,2.92-22.42Z"/>
        </g>
      </g>
    </g>
  </g>
</svg>